<svg width="16" height="16" viewBox="0 0 16 16" fill="none" xmlns="http://www.w3.org/2000/svg">
<path d="M5.20065 1.33333H10.8007C12.934 1.33333 14.6673 3.06666 14.6673 5.2V10.8C14.6673 11.8255 14.2599 12.809 13.5348 13.5341C12.8097 14.2593 11.8262 14.6667 10.8007 14.6667H5.20065C3.06732 14.6667 1.33398 12.9333 1.33398 10.8V5.2C1.33398 4.17449 1.74136 3.19099 2.4665 2.46585C3.19165 1.74071 4.17515 1.33333 5.20065 1.33333ZM5.06732 2.66666C4.4308 2.66666 3.82035 2.91952 3.37026 3.36961C2.92017 3.81969 2.66732 4.43014 2.66732 5.06666V10.9333C2.66732 12.26 3.74065 13.3333 5.06732 13.3333H10.934C11.5705 13.3333 12.181 13.0805 12.631 12.6304C13.0811 12.1803 13.334 11.5698 13.334 10.9333V5.06666C13.334 3.74 12.2607 2.66666 10.934 2.66666H5.06732ZM11.5007 3.66666C11.7217 3.66666 11.9336 3.75446 12.0899 3.91074C12.2462 4.06702 12.334 4.27898 12.334 4.49999C12.334 4.72101 12.2462 4.93297 12.0899 5.08925C11.9336 5.24553 11.7217 5.33333 11.5007 5.33333C11.2796 5.33333 11.0677 5.24553 10.9114 5.08925C10.7551 4.93297 10.6673 4.72101 10.6673 4.49999C10.6673 4.27898 10.7551 4.06702 10.9114 3.91074C11.0677 3.75446 11.2796 3.66666 11.5007 3.66666ZM8.00065 4.66666C8.88471 4.66666 9.73255 5.01785 10.3577 5.64297C10.9828 6.26809 11.334 7.11594 11.334 8C11.334 8.88405 10.9828 9.7319 10.3577 10.357C9.73255 10.9821 8.88471 11.3333 8.00065 11.3333C7.1166 11.3333 6.26875 10.9821 5.64363 10.357C5.01851 9.7319 4.66732 8.88405 4.66732 8C4.66732 7.11594 5.01851 6.26809 5.64363 5.64297C6.26875 5.01785 7.1166 4.66666 8.00065 4.66666ZM8.00065 6C7.47022 6 6.96151 6.21071 6.58644 6.58578C6.21136 6.96085 6.00065 7.46956 6.00065 8C6.00065 8.53043 6.21136 9.03914 6.58644 9.41421C6.96151 9.78928 7.47022 10 8.00065 10C8.53108 10 9.03979 9.78928 9.41487 9.41421C9.78994 9.03914 10.0007 8.53043 10.0007 8C10.0007 7.46956 9.78994 6.96085 9.41487 6.58578C9.03979 6.21071 8.53108 6 8.00065 6Z" fill="black"/>
</svg>
